<?xml version="1.0" standalone="no"?>
<!DOCTYPE svg PUBLIC "-//W3C//DTD SVG 20010904//EN"
 "http://www.w3.org/TR/2001/REC-SVG-20010904/DTD/svg10.dtd">
<svg version="1.0" xmlns="http://www.w3.org/2000/svg"
 width="512.000000pt" height="512.000000pt" viewBox="0 0 512.000000 512.000000"
 preserveAspectRatio="xMidYMid meet">

<g transform="translate(0.000000,512.000000) scale(0.100000,-0.100000)"
fill="#000000" stroke="none">
<path d="M4580 4761 c-105 -33 -477 -260 -760 -465 -831 -602 -1712 -1557
-2370 -2568 l-115 -177 -70 -1 c-136 -1 -261 -52 -368 -151 -114 -104 -169
-202 -237 -424 -38 -124 -80 -158 -190 -158 -36 0 -90 6 -121 12 -91 19 -129
-7 -129 -86 0 -148 215 -329 451 -378 274 -58 563 37 780 255 139 140 208 294
217 483 2 59 8 107 12 107 13 0 446 291 599 403 861 628 1586 1327 2113 2037
169 228 391 581 474 753 93 195 -5 369 -207 366 -30 0 -65 -4 -79 -8z m141
-172 c35 -35 21 -82 -76 -251 -262 -459 -583 -879 -1031 -1351 -92 -97 -116
-118 -133 -112 -47 15 -207 130 -287 207 -79 76 -183 215 -198 264 -6 18 18
45 146 167 415 394 817 705 1223 947 261 155 312 173 356 129z m-1813 -1421
c104 -161 248 -294 447 -413 15 -9 6 -22 -66 -91 -46 -45 -122 -116 -169 -157
l-84 -77 -65 36 c-91 50 -168 112 -248 198 -66 72 -168 227 -161 245 5 14 290
321 298 321 4 0 25 -28 48 -62z m-408 -485 c88 -137 227 -267 385 -358 16 -10
3 -23 -96 -106 -285 -239 -640 -504 -964 -719 -236 -157 -258 -170 -282 -170
-29 0 -69 35 -81 70 -10 28 -4 39 85 177 193 299 424 617 670 923 208 257 218
269 223 269 3 0 30 -39 60 -86z m-1188 -1352 c25 -66 84 -125 149 -148 46 -17
49 -20 49 -53 -1 -161 -98 -342 -243 -456 -175 -137 -370 -189 -557 -150 -77
16 -206 74 -235 106 -15 16 -12 17 46 23 76 8 134 34 189 83 52 47 79 100 120
234 40 130 85 214 153 283 62 64 123 101 197 121 92 25 109 20 132 -43z"/>
</g>
</svg>
